<svg width="28" height="23" viewBox="0 0 28 23" fill="none" xmlns="http://www.w3.org/2000/svg">
  <path fill-rule="evenodd" clip-rule="evenodd" d="M6.09956 1.0508C6.1015 0.872064 6.17464 0.701302 6.30308 0.575595C6.43152 0.449888 6.60491 0.379385 6.78558 0.379395H21.2517C21.4321 0.379254 21.6053 0.449796 21.7334 0.575606C21.8614 0.701415 21.9339 0.87226 21.935 1.0508V4.74133L26.9562 6.07747C27.2924 6.16414 27.4876 6.5343 27.39 6.89506L24.3694 18.0484L24.3687 21.3903C24.3687 21.5703 24.2964 21.743 24.1677 21.8703C24.0391 21.9975 23.8646 22.0691 23.6827 22.0691H4.35162C4.16968 22.0691 3.99519 21.9975 3.86653 21.8703C3.73788 21.743 3.6656 21.5703 3.6656 21.3903V15.5579L0.666313 7.40619C0.537552 7.05534 0.699559 6.67213 1.02621 6.55466L6.09956 4.72775V1.0508ZM16.5135 3.29866L20.9973 4.49179V1.30513H7.03734V4.39006L15.1651 1.46325C15.4923 1.34578 15.8649 1.53634 15.9941 1.88719L16.5135 3.29866ZM24.1709 6.45116C24.0423 6.32388 23.8678 6.25237 23.6858 6.25237H17.6003L16.9046 4.36151L26.4197 6.89348L24.3702 14.4612L24.3718 6.93109C24.3718 6.75108 24.2996 6.57845 24.1709 6.45116ZM1.63291 7.32159L3.6656 12.8462V6.93109C3.6656 6.7926 3.70838 6.65848 3.7867 6.54601L1.63291 7.32159ZM15.1986 2.43661L16.6026 6.25237H4.60215L15.1986 2.43661ZM20.796 11.9541C20.759 11.9693 20.7194 11.9771 20.6793 11.9771H14.8941V10.4708H20.6793C20.7601 10.4708 20.8375 10.5026 20.8946 10.5591C20.9518 10.6156 20.9838 10.6922 20.9838 10.7721V11.6753C20.9839 11.7149 20.9761 11.7541 20.9608 11.7907C20.9455 11.8274 20.9231 11.8606 20.8948 11.8887C20.8666 11.9167 20.833 11.9389 20.796 11.9541ZM20.8945 17.6122C20.8374 17.6685 20.76 17.7002 20.6793 17.7002H14.8941V16.194H20.6793C20.7601 16.194 20.8375 16.2257 20.8946 16.2822C20.9518 16.3387 20.9838 16.4153 20.9838 16.4952V17.3995C20.9837 17.4793 20.9515 17.5558 20.8945 17.6122ZM21.8081 14.7499C21.751 14.8064 21.6736 14.8381 21.5928 14.8381H14.8941V13.3319H21.5928C21.6735 13.332 21.7509 13.3638 21.808 13.4203C21.865 13.4767 21.8972 13.5533 21.8973 13.6331V14.5369C21.8973 14.6168 21.8652 14.6934 21.8081 14.7499ZM13.216 14.1683C13.2151 13.939 13.1959 13.7101 13.1584 13.4838H9.7183V14.8413H11.6882C11.5257 15.6688 10.7911 16.2686 9.7183 16.2686C8.52252 16.2686 7.5547 15.2678 7.5547 14.0847C7.5547 12.9017 8.52463 11.9008 9.7183 11.9008C10.2393 11.8925 10.7427 12.0871 11.1199 12.4428L12.1627 11.4111C11.5011 10.7971 10.6249 10.4603 9.71778 10.4714C9.23429 10.4656 8.75445 10.5549 8.30608 10.7339C7.85771 10.913 7.44973 11.1784 7.10577 11.5146C6.76182 11.8508 6.48874 12.2512 6.30236 12.6926C6.11598 13.1341 6.02001 13.6077 6.02001 14.0861C6.02001 14.5644 6.11598 15.038 6.30236 15.4795C6.48874 15.9209 6.76182 16.3213 7.10577 16.6575C7.44973 16.9937 7.85771 17.2591 8.30608 17.4382C8.75445 17.6172 9.23429 17.7065 9.71778 17.7007C11.8286 17.7007 13.216 16.2331 13.216 14.1683Z" fill="#0DD0BA" />
</svg>