<svg width="13" height="13" viewBox="0 0 13 13" fill="none" xmlns="http://www.w3.org/2000/svg">
<path d="M11.5 10.1484C11.5 8.09375 10.9922 5.71875 8.94531 5.71875C8.3125 6.33594 7.45312 6.71875 6.5 6.71875C5.54688 6.71875 4.6875 6.33594 4.05469 5.71875C2.00781 5.71875 1.5 8.09375 1.5 10.1484C1.5 11.2891 2.25 12.2188 3.16406 12.2188H9.83594C10.75 12.2188 11.5 11.2891 11.5 10.1484ZM9.5 3.21875C9.5 1.5625 8.15625 0.21875 6.5 0.21875C4.84375 0.21875 3.5 1.5625 3.5 3.21875C3.5 4.875 4.84375 6.21875 6.5 6.21875C8.15625 6.21875 9.5 4.875 9.5 3.21875Z" fill="#B3B3B1"/>
</svg>
